<svg xmlns="http://www.w3.org/2000/svg" width="115" height="143.997" fill="none"><g transform="translate(0 0)"><g transform="translate(0 0)"><path d="M 67.678 88.255 L 65.732 89.589 L 29.856 114.183 L 28.52 115.099 C 27.972 115.474 27.647 116.097 27.651 116.762 L 27.659 117.884 L 27.821 142.113 L 27.821 142.113 C 27.763 142.899 28.733 143.312 29.259 142.726 L 29.446 142.518 L 39.197 131.585 L 52.198 116.602 L 84.15 116.602 L 84.509 116.602 C 85.496 116.602 86.111 115.532 85.616 114.679 L 85.616 114.679 L 83.022 110.213 L 83.022 110.213 C 82.552 109.405 81.688 108.907 80.753 108.907 L 80.635 108.907 L 70.835 108.907 C 67.838 108.907 65.514 106.288 65.871 103.312 L 67.375 90.775 Z" fill="rgb(145, 145, 145)"></path><path d="M 59.294 29.537 C 58.173 28.513 56.647 28.054 55.147 28.289 L 49.322 29.202 C 47.925 29.421 46.686 30.221 45.912 31.404 L 13.042 81.634 C 12.785 82.026 12.585 82.452 12.447 82.9 L 6.038 103.72 C 6.038 103.72 6.038 103.72 6.038 103.72 L 2.73 114.468 C 2.73 114.468 2.73 114.468 2.73 114.468 L 1.076 119.842 C 1.076 119.842 1.076 119.842 1.076 119.842 L 0.248 122.528 C 0.219 122.528 0.278 122.528 0.248 122.528 L 0.042 123.2 C -0.191 123.957 0.597 124.624 1.305 124.268 L 2.873 123.481 C 2.902 123.481 2.844 123.481 2.873 123.481 L 6.324 121.746 C 6.324 121.746 6.324 121.746 6.324 121.746 L 13.227 118.276 C 13.227 118.276 13.227 118.276 13.227 118.276 L 20.13 114.807 C 20.13 114.807 20.13 114.807 20.13 114.807 L 26.752 111.478 C 26.939 111.384 27.12 111.279 27.293 111.162 L 32.217 107.857 C 32.219 107.856 32.222 107.854 32.225 107.852 L 43.975 99.931 C 43.981 99.927 43.987 99.923 43.993 99.918 L 56.587 91.345 C 56.609 91.33 56.631 91.315 56.653 91.3 L 61.438 87.93 C 63.415 86.538 65.122 84.8 66.479 82.799 L 70.72 76.541 C 70.723 76.536 70.727 76.531 70.73 76.526 L 75.033 70.129 C 75.038 70.122 75.043 70.114 75.048 70.107 L 76.166 68.425 C 76.698 67.623 76.988 66.686 77.001 65.724 L 77.022 64.208 C 77.022 64.186 77.022 64.163 77.022 64.141 L 77.022 56.061 L 77.022 56.061 L 77.022 47.939 C 77.022 46.535 76.432 45.195 75.395 44.248 L 72.147 41.281 C 72.147 41.281 72.147 41.281 72.147 41.281 L 67.271 36.826 C 67.271 36.826 67.271 36.826 67.271 36.826 L 62.396 32.372 C 62.396 32.372 62.396 32.372 62.396 32.372 Z" fill="rgb(145, 145, 145)"></path><path d="M 95.692 0 L 64.405 0 C 62.566 0 62.4 0.289 61.545 1.384 L 44.499 22.653 L 42.985 25.024 C 42.472 25.827 43.153 26.858 44.093 26.702 L 46.5 26.302 C 46.52 26.299 46.541 26.296 46.561 26.293 L 56.717 24.735 C 56.968 24.697 57.221 24.677 57.475 24.677 L 96.118 24.677 C 96.118 24.677 95.896 0.163 95.692 0 Z" fill="rgb(145, 145, 145)"></path></g><g transform="translate(95.478 7.694)"><path d="M 0 7.289 L 0 0 L 13.448 7.289 L 18.585 13.354 C 18.746 13.544 18.893 13.747 19.024 13.959 L 19.154 14.169 C 19.368 14.515 19.481 14.914 19.481 15.32 L 19.481 27.4 C 19.481 27.889 19.236 28.459 18.746 28.947 L 9.841 37.415 C 9.433 37.903 8.943 37.578 9.27 36.764 L 11.639 29.33 C 11.761 28.947 11.823 28.547 11.823 28.144 L 11.823 28.144 C 11.823 27.758 11.658 27.39 11.37 27.133 L 0 17.008 Z" fill="rgb(148, 148, 148)"></path><path d="M 0 0 L 13.448 7.289 L 18.585 13.354 C 18.746 13.544 18.893 13.747 19.024 13.959 L 19.154 14.169 C 19.368 14.515 19.483 14.914 19.486 15.32 L 19.522 19.438 L 19.522 26.727 L 17.957 19.24 C 17.65 17.771 17.016 16.39 16.103 15.199 L 12.894 11.016 C 12.439 10.423 11.919 9.883 11.343 9.406 Z" fill="rgb(174, 174, 174)"></path></g><g transform="translate(39.004 0)"><path d="M 57.25 0.731 L 68.664 11.957 C 69.314 12.596 69.728 13.435 69.842 14.338 L 69.922 14.983 L 61.407 14.983 C 60.33 14.983 59.296 15.41 58.534 16.169 L 57.927 16.774 C 56.996 17.702 56.468 18.96 56.457 20.275 L 56.073 67.391 C 56.07 67.816 55.999 68.237 55.865 68.64 L 55.121 70.862 C 54.942 71.399 54.651 71.892 54.269 72.311 L 0 131.609 L 40.964 69.091 C 41.393 68.437 41.623 67.673 41.626 66.892 L 41.7 47.033 C 41.702 46.634 41.644 46.237 41.529 45.854 L 41.288 45.052 C 41.078 44.356 40.684 43.729 40.148 43.236 L 19.949 24.702 L 30.408 15.436 C 30.747 15.136 31.425 14.459 32.117 14.173 C 32.809 13.887 34.135 13.768 34.669 13.768 L 51.308 13.768 C 52.292 13.768 53.255 13.478 54.075 12.933 L 54.673 12.536 C 55.799 11.787 56.477 10.53 56.482 9.181 L 56.515 0 Z" fill="rgb(255, 255, 255)"></path></g><g transform="translate(77.601 17.008)"><path d="M 3.657 0.81 L 0 4.05 L 2.438 4.05 L 2.451 4.478 C 2.451 6.432 4.493 8.142 6.454 8.142 C 8.659 8.142 10.62 6.351 10.62 4.315 C 10.62 2.28 9.149 0 6.944 0 C 5.8 0 4.637 -0.004 3.657 0.81 Z" fill="rgb(11, 11, 11)"></path></g></g></svg>