<svg xmlns="http://www.w3.org/2000/svg" width="141.525" height="176.564" fill="none" overflow="visible"><g><g transform="translate(0 0)"><path d="M 83.288 108.97 L 80.894 110.616 L 36.742 140.984 L 34.894 142.255 C 34.347 142.631 34.023 143.253 34.027 143.916 L 34.038 145.553 L 34.237 175.47 L 34.237 175.47 C 34.167 176.438 35.363 176.946 36.01 176.223 L 36.237 175.97 L 48.237 162.47 L 64.237 143.97 L 103.559 143.97 L 103.994 143.97 C 105.213 143.97 105.973 142.65 105.363 141.596 L 105.363 141.596 L 102.171 136.082 L 102.171 136.082 C 101.593 135.084 100.527 134.47 99.374 134.47 L 99.234 134.47 L 85.871 134.47 C 82.874 134.47 80.551 131.851 80.907 128.876 L 82.915 112.082 Z" fill="rgb(145, 145, 145)"></path><path d="M 72.563 36.097 C 71.441 35.069 69.912 34.607 68.408 34.844 L 60.195 36.135 C 58.797 36.355 57.557 37.157 56.784 38.343 L 15.959 100.934 C 15.704 101.326 15.504 101.751 15.367 102.199 L 7.431 128.065 L 7.431 128.065 L 3.359 141.335 L 3.359 141.335 L 1.323 147.97 L 1.323 147.97 L 0.306 151.288 L 0.306 151.288 L 0.051 152.117 C -0.236 153.052 0.739 153.874 1.612 153.433 L 3.535 152.463 L 3.535 152.463 L 7.783 150.321 L 7.783 150.321 L 16.278 146.038 L 16.278 146.038 L 24.773 141.754 L 24.773 141.754 L 32.987 137.611 C 33.174 137.517 33.355 137.411 33.528 137.294 L 39.648 133.173 C 39.651 133.171 39.654 133.169 39.656 133.167 L 54.119 123.385 C 54.126 123.381 54.132 123.376 54.138 123.372 L 69.647 112.78 C 69.669 112.765 69.69 112.75 69.712 112.735 L 76.302 108.079 C 78.276 106.684 79.981 104.943 81.334 102.94 L 87.033 94.505 C 87.036 94.5 87.039 94.495 87.043 94.49 L 92.341 86.587 C 92.346 86.579 92.351 86.572 92.356 86.564 L 93.926 84.195 C 94.456 83.395 94.744 82.46 94.757 81.5 L 94.787 79.271 C 94.788 79.248 94.788 79.226 94.788 79.203 L 94.788 69.22 L 94.788 69.22 L 94.788 58.669 C 94.788 57.268 94.199 55.93 93.166 54.983 L 88.788 50.97 L 88.788 50.97 L 82.788 45.47 L 82.788 45.47 L 76.788 39.97 L 76.788 39.97 Z" fill="rgb(145, 145, 145)"></path><path d="M 117.763 0 L 79.26 0 C 76.997 0 76.793 0.356 75.741 1.709 L 54.763 27.97 L 52.895 30.904 C 52.265 31.894 53.105 33.163 54.263 32.97 L 57.232 32.475 C 57.252 32.471 57.273 32.468 57.293 32.465 L 69.885 30.528 C 70.136 30.489 70.39 30.47 70.645 30.47 L 118.288 30.47 C 118.288 30.47 118.015 0.201 117.763 0 Z" fill="rgb(145, 145, 145)"></path></g><g transform="translate(117.5 9.5)"><path d="M 0 9 L 0 0 L 16.55 9 L 22.928 16.555 C 23.089 16.746 23.236 16.948 23.366 17.16 L 23.572 17.495 C 23.835 17.922 23.974 18.414 23.974 18.916 L 23.974 33.831 C 23.974 34.435 23.673 35.138 23.069 35.741 L 12.111 46.197 C 11.609 46.8 11.006 46.398 11.408 45.393 L 14.323 36.215 C 14.474 35.741 14.55 35.247 14.55 34.75 L 14.55 34.75 C 14.55 34.273 14.347 33.818 13.991 33.5 L 0 21 Z" fill="rgb(148, 148, 148)"></path><path d="M 0 0 L 16.55 9 L 22.928 16.555 C 23.089 16.746 23.236 16.948 23.366 17.16 L 23.572 17.495 C 23.835 17.922 23.977 18.414 23.981 18.916 L 24.025 24 L 24.025 33 L 21.989 23.228 C 21.684 21.761 21.053 20.382 20.143 19.193 L 15.708 13.394 C 15.254 12.8 14.735 12.259 14.16 11.781 Z" fill="rgb(174, 174, 174)"></path></g><g transform="translate(48 0)"><path d="M 70.455 0.902 L 84.501 14.764 C 85.301 15.553 85.812 16.588 85.951 17.703 L 86.05 18.5 L 75.571 18.5 C 74.245 18.5 72.973 19.027 72.036 19.964 L 70.948 21.052 C 70.02 21.98 69.494 23.235 69.483 24.547 L 69.006 83.209 C 69.002 83.733 68.916 84.253 68.75 84.75 L 67.835 87.495 C 67.614 88.157 67.257 88.767 66.786 89.283 L 0 162.5 L 50.413 85.308 C 50.94 84.5 51.223 83.557 51.227 82.593 L 51.319 58.073 C 51.321 57.58 51.25 57.089 51.108 56.617 L 50.811 55.626 C 50.553 54.767 50.068 53.993 49.408 53.385 L 24.55 30.5 L 37.422 19.059 C 37.839 18.689 38.674 17.853 39.525 17.5 C 40.377 17.147 42.009 17 42.666 17 L 63.486 17 C 64.473 17 65.438 16.708 66.26 16.16 L 67.283 15.478 C 68.669 14.554 69.504 13.001 69.51 11.336 L 69.55 0 Z" fill="rgb(255, 255, 255)"></path></g><g transform="translate(95.5 21)"><path d="M 4.5 1 L 0 5 L 3 5 L 3.016 5.529 C 3.016 7.942 5.529 10.053 7.942 10.053 C 10.656 10.053 13.069 7.841 13.069 5.328 C 13.069 2.815 11.26 0 8.545 0 C 7.138 0 5.706 -0.005 4.5 1 Z" fill="rgb(11, 11, 11)"></path></g></g></svg>